<?xml version="1.0" encoding="UTF-8" standalone="no"?>
<!-- Created with Inkscape (http://www.inkscape.org/) -->

<svg
   xmlns:dc="http://purl.org/dc/elements/1.1/"
   xmlns:cc="http://creativecommons.org/ns#"
   xmlns:rdf="http://www.w3.org/1999/02/22-rdf-syntax-ns#"
   xmlns:svg="http://www.w3.org/2000/svg"
   xmlns="http://www.w3.org/2000/svg"
   xmlns:sodipodi="http://sodipodi.sourceforge.net/DTD/sodipodi-0.dtd"
   xmlns:inkscape="http://www.inkscape.org/namespaces/inkscape"
   width="306.2825mm"
   height="133.28217mm"
   viewBox="0 0 1085.2529 472.25964"
   id="svg2"
   version="1.1"
   inkscape:version="0.91 r13725"
   sodipodi:docname="funnel.svg">
  <defs
     id="defs4" />
  <sodipodi:namedview
     id="base"
     pagecolor="#ffffff"
     bordercolor="#666666"
     borderopacity="1.0"
     inkscape:pageopacity="0.0"
     inkscape:pageshadow="2"
     inkscape:zoom="0.98994949"
     inkscape:cx="578.37969"
     inkscape:cy="242.54379"
     inkscape:document-units="mm"
     inkscape:current-layer="layer1"
     showgrid="true"
     fit-margin-left="20"
     fit-margin-top="20"
     fit-margin-bottom="20"
     fit-margin-right="20"
     inkscape:window-width="1366"
     inkscape:window-height="716"
     inkscape:window-x="0"
     inkscape:window-y="0"
     inkscape:window-maximized="1">
    <inkscape:grid
       type="xygrid"
       id="grid3390"
       units="mm"
       spacingx="3.5433071"
       spacingy="3.5433072"
       empspacing="10"
       visible="false"
       originx="43.020407"
       originy="-591.23237" />
  </sodipodi:namedview>
  <metadata
     id="metadata7">
    <rdf:RDF>
      <cc:Work
         rdf:about="">
        <dc:format>image/svg+xml</dc:format>
        <dc:type
           rdf:resource="http://purl.org/dc/dcmitype/StillImage" />
        <dc:title></dc:title>
      </cc:Work>
    </rdf:RDF>
  </metadata>
  <g
     inkscape:label="Capa 1"
     inkscape:groupmode="layer"
     id="layer1"
     transform="translate(43.020408,11.129814)">
    <path
       style="fill:none;fill-rule:evenodd;stroke:#000000;stroke-width:1px;stroke-linecap:butt;stroke-linejoin:miter;stroke-opacity:1"
       d="m 276.37891,60.236328 -240.945316,0 0,49.605472 -7.087891,0 0,56.69336 7.087891,0 0,113.38672 -7.087891,0 0,56.6914 7.087891,0 0,42.52149 240.945316,0"
       id="rect3392"
       inkscape:connector-curvature="0"
       sodipodi:nodetypes="cccccccccccc" />
    <path
       style="fill:none;fill-rule:evenodd;stroke:#000000;stroke-width:1px;stroke-linecap:butt;stroke-linejoin:miter;stroke-opacity:1"
       d="m 276.37891,60.236328 0,49.605472 7.08593,0 0,56.69336 -7.08593,0 0,113.38672 7.08593,0 0,56.6914 -7.08593,0 0,42.52149 0,10.6289 226.77148,0 0,-10.6289 0,-42.52149 -7.08789,0 0,-56.6914 7.08789,0 0,-113.38672 -7.08789,0 0,-56.69336 7.08789,0 0,-49.605472 -226.77148,0 z"
       id="rect3403"
       inkscape:connector-curvature="0" />
    <path
       id="path3411"
       d="m 503.15128,379.13477 240.94532,0 m 0,-318.898442 -240.94532,0"
       style="fill:none;fill-rule:evenodd;stroke:#000000;stroke-width:1px;stroke-linecap:butt;stroke-linejoin:miter;stroke-opacity:1"
       inkscape:connector-curvature="0"
       sodipodi:nodetypes="cccc" />
    <path
       id="path3416"
       d="m 744.09488,60.236328 0,49.605472 7.08593,0 0,56.69336 -7.08593,0 0,113.38672 7.08593,0 0,56.6914 -7.08593,0 0,42.52149 0,10.6289 226.77148,0 0,-10.6289 0,-42.52149 -7.08789,0 0,-56.6914 7.08789,0 0,-113.38672 -7.08789,0 0,-56.69336 7.08789,0 0,-49.605472 -226.77148,0 z"
       style="fill:none;fill-rule:evenodd;stroke:#000000;stroke-width:1px;stroke-linecap:butt;stroke-linejoin:miter;stroke-opacity:1"
       inkscape:connector-curvature="0" />
  </g>
</svg>
